<svg
                    xmlns="http://www.w3.org/2000/svg"
                    width="22.143"
                    height="31"
                    viewBox="0 0 22.143 31"
                  >
                    <g
                      id="_x31_8_x2C__report_x2C__record_x2C__health_x2C__healthcare"
                      transform="translate(-116.206 -60.29)"
                    >
                      <g id="XMLID_15724_" transform="translate(116.206 60.29)">
                        <rect
                          id="XMLID_15725_"
                          width="10.333"
                          height="3.69"
                          transform="translate(8.857 9.595)"
                          fill="#f7be00"
                        />
                        <path
                          id="XMLID_15726_"
                          d="M185.41,63.611V62.5h-4.086a.369.369,0,0,1-.365-.317,2.214,2.214,0,0,0-4.383,0,.369.369,0,0,1-.365.317h-4.086v3.69H185.41Z"
                          transform="translate(-167.695 -60.29)"
                          fill="#f7be00"
                        />
                        <path
                          id="XMLID_15727_"
                          d="M134.658,106.887v2.583a.369.369,0,0,1-.369.369H120.266a.369.369,0,0,1-.369-.369v-2.583h-3.691V134.2h22.143v-27.31Zm-15.869,7.381H119.9v-1.107a.369.369,0,1,1,.738,0v1.107h1.107a.369.369,0,0,1,0,.738h-1.107v1.107a.369.369,0,1,1-.738,0v-1.107h-1.107a.369.369,0,1,1,0-.738Zm0,5.167h4.429a.369.369,0,1,1,0,.738h-4.429a.369.369,0,1,1,0-.738Zm0,2.952h4.429a.369.369,0,1,1,0,.738h-4.429a.369.369,0,1,1,0-.738Zm.261,9.487a.37.37,0,1,1,.108-.261A.371.371,0,0,1,119.051,131.874Zm0-2.952a.37.37,0,0,1-.522,0,.369.369,0,0,1,.522-.523.371.371,0,0,1,0,.523Zm0-2.952a.371.371,0,1,1,.108-.261A.372.372,0,0,1,119.051,125.97Zm7.12,6.013h-4.429a.369.369,0,1,1,0-.738h4.429a.369.369,0,1,1,0,.738Zm0-2.952h-4.429a.369.369,0,1,1,0-.738h4.429a.369.369,0,1,1,0,.738Zm0-2.952h-4.429a.369.369,0,1,1,0-.738h4.429a.369.369,0,1,1,0,.738Zm9.964,5.536a.369.369,0,0,1-.369.369h-6.643a.369.369,0,0,1-.369-.369v-5.9a.369.369,0,0,1,.369-.369h6.643a.369.369,0,0,1,.369.369Zm-.369-8.488H125.432a.369.369,0,1,1,0-.738h10.333a.369.369,0,0,1,0,.738Zm0-2.952H125.432a.369.369,0,1,1,0-.738h10.333a.369.369,0,0,1,0,.738Zm.369-3.321a.369.369,0,0,1-.369.369H124.694a.369.369,0,0,1-.369-.369v-4.429a.369.369,0,0,1,.369-.369h11.071a.369.369,0,0,1,.369.369Z"
                          transform="translate(-116.206 -103.197)"
                          fill="#f7be00"
                        />
                        <rect
                          id="XMLID_15742_"
                          width="5.905"
                          height="5.167"
                          transform="translate(13.286 22.881)"
                          fill="#f7be00"
                        />
                      </g>
                    </g>
                  </svg>
